<svg width="581" height="374" viewBox="0 0 581 374" fill="none" xmlns="http://www.w3.org/2000/svg">
<path d="M89.0221 195.528H166.944V207.516C166.944 229.716 159.84 247.698 145.632 261.462C131.424 275.226 113.072 282.108 90.5761 282.108C66.6001 282.108 46.6941 274.338 30.8581 258.798C15.1701 243.11 7.32606 224.018 7.32606 201.522C7.32606 178.878 15.0961 159.712 30.6361 144.024C46.3241 128.336 65.7121 120.492 88.8001 120.492C103.156 120.492 116.328 123.748 128.316 130.26C140.304 136.772 149.702 145.578 156.51 156.678L130.314 171.774C126.614 165.41 120.99 160.23 113.442 156.234C105.894 152.238 97.6061 150.24 88.5781 150.24C73.6301 150.24 61.4201 155.124 51.9481 164.892C42.4761 174.364 37.7401 186.574 37.7401 201.522C37.7401 216.174 42.5501 228.31 52.1701 237.93C61.7901 247.402 74.6661 252.138 90.7981 252.138C102.49 252.138 112.258 249.548 120.102 244.368C127.946 239.188 133.274 231.936 136.086 222.612H89.0221V195.528ZM236.156 282.108C220.912 282.108 208.036 278.704 197.528 271.896C187.02 265.088 179.546 255.69 175.106 243.702L201.302 228.384C207.37 244.22 219.284 252.138 237.044 252.138C245.332 252.138 251.548 250.658 255.692 247.698C259.836 244.738 261.908 240.742 261.908 235.71C261.908 230.234 259.466 226.016 254.582 223.056C249.698 219.948 240.966 216.618 228.386 213.066C214.77 208.922 204.04 204.112 196.196 198.636C186.428 191.384 181.544 180.728 181.544 166.668C181.544 152.46 186.502 141.286 196.418 133.146C206.334 124.71 218.396 120.492 232.604 120.492C245.036 120.492 256.062 123.526 265.682 129.594C275.302 135.662 282.776 144.246 288.104 155.346L262.352 170.22C256.136 156.9 246.22 150.24 232.604 150.24C226.388 150.24 221.43 151.72 217.73 154.68C214.03 157.492 212.18 161.192 212.18 165.78C212.18 170.664 214.178 174.66 218.174 177.768C222.614 180.876 230.458 184.132 241.706 187.536L252.362 191.088C254.286 191.68 257.616 192.938 262.352 194.862C266.792 196.49 270.048 198.044 272.12 199.524C279.372 203.964 284.256 208.552 286.772 213.288C290.62 219.504 292.544 226.83 292.544 235.266C292.544 249.622 287.29 261.018 276.782 269.454C266.274 277.89 252.732 282.108 236.156 282.108Z" fill="black"/>
<path d="M386.134 114.136C401.822 114.136 415.734 117.984 427.87 125.68C439.71 133.08 448.664 142.478 454.732 153.874C460.8 165.122 463.834 177.184 463.834 190.06C463.834 205.156 460.578 216.996 454.066 225.58C447.554 234.016 439.044 238.234 428.536 238.234C413.588 238.234 403.82 232.388 399.232 220.696C393.756 227.504 386.43 230.908 377.254 230.908C367.782 230.908 359.938 227.504 353.722 220.696C347.654 213.74 344.62 205.008 344.62 194.5C344.62 184.14 347.654 175.482 353.722 168.526C359.938 161.57 367.782 158.092 377.254 158.092C385.246 158.092 391.98 160.83 397.456 166.306V160.534H421.21V211.816C421.21 222.62 425.502 228.022 434.086 228.022C440.598 228.022 445.778 224.766 449.626 218.254C453.474 211.742 455.398 202.344 455.398 190.06C455.398 170.82 448.738 154.614 435.418 141.442C421.95 128.27 405.522 121.684 386.134 121.684C365.71 121.684 348.468 128.714 334.408 142.774C320.496 156.686 313.54 173.928 313.54 194.5C313.54 215.516 320.792 232.906 335.296 246.67C349.8 260.434 368.078 267.316 390.13 267.316C404.338 267.316 416.326 265.466 426.094 261.766V269.758C415.882 273.162 403.894 274.864 390.13 274.864C365.858 274.864 345.656 267.242 329.524 251.998C313.392 236.902 305.326 217.736 305.326 194.5C305.326 172.3 313.022 153.356 328.414 137.668C343.954 121.98 363.194 114.136 386.134 114.136ZM383.248 209.596C387.392 209.596 390.722 208.19 393.238 205.378C395.902 202.566 397.234 198.94 397.234 194.5C397.234 189.912 395.902 186.286 393.238 183.622C390.722 180.81 387.392 179.404 383.248 179.404C378.956 179.404 375.478 180.81 372.814 183.622C370.15 186.286 368.818 189.912 368.818 194.5C368.818 198.94 370.15 202.566 372.814 205.378C375.478 208.19 378.956 209.596 383.248 209.596Z" fill="#DC5B32"/>
<rect x="278.836" y="116.442" width="194.889" height="22.382" rx="7" transform="rotate(-36.6896 278.836 116.442)" fill="#DC5B32"/>
<rect x="435.297" y="0.828445" width="205.68" height="22.382" rx="7" transform="rotate(45 435.297 0.828445)" fill="#DC5B32"/>
<rect x="521.84" y="135.189" width="174.882" height="21.3271" rx="7" transform="rotate(90 521.84 135.189)" fill="#DC5B32"/>
<rect x="521.84" y="310.071" width="238.863" height="21.327" rx="7" transform="rotate(-180 521.84 310.071)" fill="#DC5B32"/>
<path d="M571.23 150.563C572.142 154.912 568.823 159 564.379 159L508 159C504.134 159 501 155.866 501 152L501 142C501 138.134 504.134 135 508 135L562.281 135C565.593 135 568.452 137.321 569.132 140.563L571.23 150.563Z" fill="#DC5B32"/>
</svg>
